# Blender v2.76 (sub 0) OBJ File: 'MarioParty8Body.blend'
# www.blender.org
mtllib fg_G_sling.mtl
o vsn_mesh_0__mesh_0_.005
v -4.643141 8.716610 -3.669773
v -5.378354 10.771110 -0.875346
v -4.259691 11.145970 -3.828027
v -4.997158 7.807184 -0.729234
v -2.852657 9.062198 -5.720562
v -2.323610 7.021026 -1.819294
v -2.052932 7.372036 -3.782959
v -4.391917 10.534920 2.342393
v -1.902238 10.377871 -5.978307
v -0.739138 7.402429 -5.590427
v -2.217627 5.882932 -0.312055
v -3.346669 6.768465 1.043694
v -2.345298 6.961339 2.421146
v -0.344894 8.735146 -7.105438
v -3.747605 4.713819 4.245162
v -5.833169 4.269737 6.306572
v -3.602656 1.790051 6.292541
v -5.209056 4.432329 2.234828
v -0.773785 4.871030 2.425421
v -3.501112 6.102558 1.128646
v -2.386510 6.317245 2.661858
v -7.748324 3.900852 3.672144
v -0.915438 3.786475 0.760010
v -4.277735 0.048719 3.727675
v -6.701453 1.193192 2.029932
v -2.577248 4.523673 -0.055370
v -5.209056 4.432329 2.234828
v -7.748324 3.900852 3.672144
v -3.501112 6.102558 1.128646
v 3.862660 10.355629 3.516812
v 6.001881 9.957585 1.624977
v 4.233225 11.559569 2.461432
v 4.629194 8.436417 1.794079
v 1.364827 12.229359 3.908863
v 2.518867 8.252596 2.505855
v 1.414033 9.883280 4.662271
v -1.713870 11.476959 4.165394
v 0.634916 7.590868 2.250356
v -1.340396 8.511502 4.300890
v -4.391917 10.534920 2.342393
v -2.345298 6.961339 2.421146
v -0.597372 6.195003 1.916714
v -3.501112 6.102558 1.128646
v -2.386510 6.317245 2.661858
v -2.345298 6.961339 2.421146
v -3.346669 6.768465 1.043694
v -2.217627 5.882932 -0.312055
v -2.577248 4.523673 -0.055370
v -0.597372 6.195003 1.916714
v -0.773785 4.871030 2.425421
v -0.637224 5.647301 0.297202
v -0.915438 3.786475 0.760010
v -1.122032 7.453061 0.396799
v -0.597372 6.195003 1.916714
v -0.637224 5.647301 0.297202
v 0.634916 7.590868 2.250356
v -2.217627 5.882932 -0.312055
v -2.323610 7.021026 -1.819294
v -4.277735 0.048719 3.727675
v -3.602656 1.790051 6.292541
v -5.833169 4.269737 6.306572
v -7.748324 3.900852 3.672144
v -6.701453 1.193192 2.029932
v -0.739138 7.402429 -5.590427
v -0.344894 8.735146 -7.105438
v -1.902238 10.377871 -5.978307
v -4.259691 11.145970 -3.828027
v -2.052932 7.372036 -3.782959
v -5.378354 10.771110 -0.875346
v -2.323610 7.021026 -1.819294
v -4.391917 10.534920 2.342393
v -1.122032 7.453061 0.396799
v 4.629194 8.436417 1.794079
v 2.518867 8.252596 2.505855
v 1.364827 12.229359 3.908863
v 4.233225 11.559569 2.461432
v 6.001881 9.957585 1.624977
v -1.713870 11.476959 4.165394
v 0.634916 7.590868 2.250356
v -4.391917 10.534920 2.342393
v -1.122032 7.453061 0.396799
v 8.590589 3.887995 -6.164827
v 7.276014 2.166000 -4.968051
v 6.163168 4.419922 -8.065798
v 8.221354 3.347543 -2.229573
v 9.535924 5.069538 -3.426337
v 4.848594 2.697927 -6.869021
v 8.590589 3.887995 -6.164827
v 6.163168 4.419922 -8.065798
v 7.276014 2.166000 -4.968051
v 8.221354 3.347543 -2.229573
v 9.535924 5.069538 -3.426337
v 4.848594 2.697927 -6.869021
v 6.001881 9.957585 1.624977
v 8.221354 3.347543 -2.229573
v 9.535924 5.069538 -3.426337
v 4.629194 8.436417 1.794079
v -0.344894 8.735146 -7.105438
v 4.848594 2.697927 -6.869021
v -0.739138 7.402429 -5.590427
v 6.163168 4.419922 -8.065798
v 6.001881 9.957585 1.624977
v 9.535924 5.069538 -3.426337
v 8.221354 3.347543 -2.229573
v 4.629194 8.436417 1.794079
v 4.848594 2.697927 -6.869021
v -0.344894 8.735146 -7.105438
v -0.739138 7.402429 -5.590427
v 6.163168 4.419922 -8.065798
vt 0.404172 1.195600
vt 0.310067 1.283000
vt 0.310067 1.195600
vt 0.404172 1.283000
vt 0.404172 1.074580
vt 0.525930 1.195600
vt 0.525930 1.074580
vt 0.310067 1.343090
vt 0.310067 1.074580
vt 0.451225 1.020800
vt 0.525930 1.310200
vt 0.451225 1.343090
vt 0.310067 1.020800
vt 0.272850 0.102618
vt 0.272850 0.000000
vt 0.098996 0.000000
vt 0.468265 0.102618
vt 0.098996 0.196368
vt 0.468265 0.196368
vt 0.272850 0.196368
vt 0.468265 0.000000
vt -0.074858 0.196368
vt -0.074858 0.000000
vt -0.074858 0.102618
vt 0.128148 1.077210
vt -0.007731 1.021390
vt -0.007731 1.077210
vt 0.182261 1.021390
vt -0.007731 1.200280
vt 0.236374 1.077210
vt 0.128148 1.200280
vt -0.007731 1.289720
vt 0.236374 1.200280
vt 0.128148 1.289720
vt -0.007731 1.351210
vt 0.182261 1.351210
vt 0.236374 1.317550
vt -0.113214 0.054661
vt -0.113214 0.207586
vt 0.445954 1.236110
vt 0.216664 0.000000
vt 0.142557 0.974234
vt 0.011891 0.974234
vt 0.011891 0.892691
vt 0.011891 0.864795
vt 0.173807 0.864795
vt 0.011891 0.729605
vt 0.173807 0.729605
vt 0.011891 0.673544
vt 0.173807 0.673544
vt 0.143705 0.314820
vt 0.174955 0.508855
vt 0.013039 0.508855
vt 0.013039 0.411837
vt 0.013039 0.314820
vt 0.013039 0.605872
vt 0.174955 0.605872
vt 0.013039 0.672571
vt 0.174955 0.672571
vt 1.228700 0.000149
vt 0.757290 0.000149
vt 1.228700 -0.179539
vt 0.757290 0.179836
vt 1.228700 0.179836
vt 0.757290 -0.179539
vt 0.873318 0.824862
vt 0.591409 0.254911
vt 0.959117 0.254911
vt 0.677207 0.824862
vn -0.792500 -0.404700 -0.456100
vn -0.998000 -0.063600 -0.001000
vn -0.832700 0.140700 -0.535500
vn -0.835400 -0.549500 0.006500
vn -0.615400 -0.251000 -0.747100
vn -0.429500 -0.819300 -0.379700
vn -0.479200 -0.801300 -0.358100
vn -0.857400 -0.276900 0.433700
vn -0.524800 0.217900 -0.822800
vn -0.496700 -0.675300 -0.545200
vn -0.519100 -0.809400 -0.274700
vn -0.718200 -0.588000 0.372100
vn -0.715100 -0.396900 0.575400
vn -0.485800 -0.368400 -0.792600
vn 0.095700 0.827000 0.553900
vn 0.172000 0.912700 0.370700
vn 0.821300 -0.007800 0.570400
vn -0.378900 0.913600 0.147600
vn 0.810000 -0.069600 0.582300
vn -0.560800 0.771800 0.299600
vn -0.073000 0.731400 0.678000
vn -0.200300 0.979700 0.008400
vn 0.600200 -0.726400 -0.334600
vn 0.571800 -0.759900 -0.309200
vn -0.274100 -0.218800 -0.936500
vn -0.280700 -0.279700 -0.918100
vn -0.600700 0.291600 -0.744400
vn -0.516600 0.289000 -0.805900
vn -0.649800 0.174500 -0.739800
vn 0.539400 -0.028600 0.841500
vn 0.638800 -0.151800 0.754200
vn 0.577700 0.430200 0.693700
vn 0.443200 -0.494200 0.747800
vn 0.220300 0.343500 0.912900
vn 0.289600 -0.653200 0.699600
vn 0.230200 -0.207700 0.950700
vn -0.307200 0.069400 0.949100
vn 0.328100 -0.673400 0.662500
vn -0.198900 -0.426900 0.882100
vn -0.614800 -0.185200 0.766600
vn -0.379100 -0.604200 0.700900
vn 0.199700 -0.670900 0.714100
vn -0.955000 0.188100 -0.229400
vn -0.112200 0.350400 0.929800
vn -0.350300 0.347500 0.869800
vn -0.973700 0.227400 0.012200
vn -0.280800 -0.103700 -0.954100
vn -0.091100 -0.167900 -0.981600
vn 0.820600 0.108400 0.561000
vn 0.915000 0.025800 0.402400
vn 0.800000 -0.246300 -0.547100
vn 0.798700 -0.255000 -0.544900
vn 0.811200 -0.110200 -0.574300
vn 0.882800 -0.163600 -0.440200
vn 0.769100 0.239200 -0.592600
vn 0.666200 -0.445100 -0.598400
vn 0.715000 -0.196000 -0.671000
vn 0.831800 -0.413200 -0.370500
vn -0.629200 -0.562600 0.536200
vn -0.621600 -0.562200 0.545300
vn -0.627600 -0.561000 0.539700
vn -0.632200 -0.561900 0.533400
vn -0.635400 -0.564900 0.526400
vn 0.734800 0.388600 0.555900
vn 0.767900 0.368400 0.523900
vn 0.712000 0.357100 0.604600
vn 0.772800 0.444200 0.453300
vn 0.766600 0.491200 0.413500
vn 0.794500 0.605200 0.049400
vn 0.723700 0.688300 -0.048900
vn 0.670400 0.696700 -0.255100
vn 0.482800 0.772500 -0.412400
vn -0.340000 0.181600 -0.922700
vn -0.209700 0.303200 -0.929600
vn -0.239000 0.249300 -0.938400
vn -0.388900 0.145100 -0.909800
vn -0.296900 0.163400 -0.940800
vn 0.126100 0.476400 -0.870100
vn 0.185000 0.584500 -0.790000
vn 0.360600 0.637000 -0.681200
vn 0.438900 0.764100 -0.472800
vn 0.613600 -0.709400 -0.346700
vn 0.340500 -0.697900 -0.630100
vn 0.791600 -0.611000 -0.009600
vn -0.613600 0.709400 0.346700
vn -0.340500 0.697900 0.630100
vn -0.791600 0.611000 0.009600
vn 0.530500 -0.286900 0.797600
vn 0.713900 -0.158100 0.682200
vn 0.752300 -0.124600 0.646900
vn 0.462400 -0.325600 0.824700
vn -0.543000 -0.493700 -0.679200
vn -0.393400 -0.371400 -0.841000
vn -0.585000 -0.527400 -0.616100
vn -0.352500 -0.337400 -0.872800
vn -0.530500 0.286900 -0.797600
vn -0.752300 0.124600 -0.646900
vn -0.713900 0.158100 -0.682200
vn -0.462400 0.325600 -0.824700
vn 0.393400 0.371400 0.841000
vn 0.543000 0.493700 0.679200
vn 0.585000 0.527400 0.616100
vn 0.352500 0.337400 0.872800
usemtl m_fg_G_sling_mat
s 1
f 1/1/1 2/2/2 3/3/3
f 1/1/1 4/4/4 2/2/2
f 1/1/1 3/3/3 5/5/5
f 1/1/1 6/6/6 4/4/4
f 1/1/1 5/5/5 7/7/7
f 1/1/1 7/7/7 6/6/6
f 2/2/2 4/4/4 8/8/8
f 3/3/3 9/9/9 5/5/5
f 7/7/7 5/5/5 10/10/10
f 6/6/6 11/11/11 4/4/4
f 8/8/8 4/4/4 12/12/12
f 8/8/8 12/12/12 13/12/13
f 12/12/12 4/4/4 11/11/11
f 9/9/9 14/13/14 5/5/5
f 5/5/5 14/13/14 10/10/10
f 15/14/15 16/15/16 17/16/17
f 15/14/15 18/17/18 16/15/16
f 15/14/15 17/16/17 19/18/19
f 15/14/15 20/19/20 18/17/18
f 15/14/15 19/18/19 21/20/21
f 15/14/15 21/20/21 20/19/20
f 16/15/16 18/17/18 22/21/22
f 17/16/17 23/22/23 19/18/19
f 17/16/17 24/23/24 23/22/23
f 24/23/24 25/23/25 23/22/23
f 25/23/25 26/22/26 23/22/23
f 25/23/25 27/24/27 26/22/26
f 25/23/25 28/23/28 27/24/27
f 26/22/26 27/24/27 29/22/29
f 30/25/30 31/26/31 32/27/32
f 30/25/30 33/28/33 31/26/31
f 30/25/30 32/27/32 34/29/34
f 30/25/30 35/30/35 33/28/33
f 30/25/30 34/29/34 36/31/36
f 30/25/30 36/31/36 35/30/35
f 34/29/34 37/32/37 36/31/36
f 35/30/35 36/31/36 38/33/38
f 37/32/37 39/34/39 36/31/36
f 37/32/37 40/35/40 39/34/39
f 36/31/36 39/34/39 38/33/38
f 40/35/40 41/36/41 39/34/39
f 38/33/38 39/34/39 42/37/42
f 42/37/42 39/34/39 41/36/41
f 43/38/43 44/38/44 45/39/45
f 43/38/43 45/39/45 46/39/46
f 43/38/43 46/39/46 47/39/47
f 43/38/43 47/39/47 48/38/48
f 44/38/44 49/39/49 45/39/45
f 44/38/44 50/38/50 49/39/49
f 47/39/47 51/39/51 48/38/48
f 49/39/49 50/38/50 51/39/51
f 48/38/48 51/39/51 52/38/52
f 52/38/52 51/39/51 50/38/50
f 53/40/53 54/40/54 55/40/55
f 53/40/53 56/40/56 54/40/54
f 53/40/53 55/40/55 57/40/57
f 53/40/53 57/40/57 58/40/58
f 59/41/59 60/41/60 61/41/61
f 59/41/59 61/41/61 62/41/62
f 59/41/59 62/41/62 63/41/63
f 64/42/64 65/43/65 66/44/66
f 64/42/64 66/44/66 67/45/67
f 64/42/64 67/45/67 68/46/68
f 67/45/67 69/47/69 68/46/68
f 69/47/69 70/48/70 68/46/68
f 69/47/69 71/49/71 70/48/70
f 71/49/71 72/50/72 70/48/70
f 73/51/73 74/52/74 75/53/75
f 73/51/73 75/53/75 76/54/76
f 73/51/73 76/54/76 77/55/77
f 74/52/74 78/56/78 75/53/75
f 74/52/74 79/57/79 78/56/78
f 79/57/79 80/58/80 78/56/78
f 79/57/79 81/59/81 80/58/80
f 82/60/82 83/61/82 84/62/83
f 82/60/82 85/63/84 83/61/82
f 82/60/82 86/64/84 85/63/84
f 84/62/83 83/61/82 87/65/83
f 88/60/85 89/62/86 90/61/85
f 88/60/85 90/61/85 91/63/87
f 88/60/85 91/63/87 92/64/87
f 89/62/86 93/65/86 90/61/85
f 94/66/88 95/67/89 96/68/90
f 94/66/88 97/69/91 95/67/89
f 98/66/92 99/67/93 100/69/94
f 98/66/92 101/68/95 99/67/93
f 102/66/96 103/68/97 104/67/98
f 102/66/96 104/67/98 105/69/99
f 106/67/100 107/66/101 108/69/102
f 106/67/100 109/68/103 107/66/101
