# Blender v2.76 (sub 0) OBJ File: 'AnimalCrossingItem.blend'
# www.blender.org
mtllib s_sling_ball.mtl
o vsn_mesh_0__mesh_0_.014
v 0.000000 -0.000000 1.800000
v 0.453543 0.779527 1.559055
v -0.453543 0.779527 1.559055
v 0.892914 -0.000000 1.559055
v -0.892914 -0.000000 1.559055
v 0.453543 -0.779528 1.559055
v -0.453543 -0.779528 1.559055
v -0.779528 1.346457 0.892914
v 0.779528 1.346457 0.892914
v -0.779528 -1.346457 0.892913
v -1.559055 -0.000000 0.892914
v 1.559055 -0.000000 0.892914
v 0.779528 -1.346457 0.892913
v -1.800000 0.000000 0.000000
v -0.892914 1.559055 0.000000
v 0.892914 -1.559055 -0.000000
v -0.892914 -1.559055 -0.000000
v 0.892914 1.559055 0.000000
v 1.800000 0.000000 0.000000
v -0.779528 -1.346457 -0.892914
v -1.559055 0.000000 -0.892914
v 1.559055 0.000000 -0.892914
v 0.779528 -1.346457 -0.892914
v -0.779528 1.346457 -0.892913
v 0.779528 1.346457 -0.892913
v 0.453543 -0.779527 -1.559055
v -0.453543 -0.779527 -1.559055
v 0.453543 0.779528 -1.559055
v 0.892914 0.000000 -1.559055
v -0.892914 0.000000 -1.559055
v -0.453543 0.779528 -1.559055
v 0.000000 0.000000 -1.800000
vn 0.000000 0.000000 1.000000
vn 0.285100 0.485900 0.826200
vn -0.282200 0.486200 0.827000
vn 0.559200 0.002600 0.829000
vn -0.559200 -0.002600 0.829000
vn 0.282200 -0.486200 0.827000
vn -0.285100 -0.485900 0.826200
vn -0.443300 0.766400 0.464900
vn 0.444100 0.765600 0.465400
vn -0.444100 -0.765600 0.465400
vn -0.884400 -0.001100 0.466800
vn 0.884400 0.001100 0.466800
vn 0.443300 -0.766400 0.464900
vn -1.000000 0.000000 0.000000
vn -0.496700 0.867900 -0.000300
vn 0.496700 -0.867900 -0.000300
vn -0.496700 -0.867900 0.000300
vn 0.496700 0.867900 0.000300
vn 1.000000 0.000000 0.000000
vn -0.443300 -0.766400 -0.464900
vn -0.884400 0.001100 -0.466800
vn 0.884400 -0.001100 -0.466800
vn 0.444100 -0.765600 -0.465400
vn -0.444100 0.765600 -0.465400
vn 0.443300 0.766400 -0.464900
vn 0.285100 -0.485900 -0.826200
vn -0.282200 -0.486200 -0.827000
vn 0.282200 0.486200 -0.827000
vn 0.559200 -0.002600 -0.829000
vn -0.559200 0.002600 -0.829000
vn -0.285100 0.485900 -0.826200
vn 0.000000 0.000000 -1.000000
usemtl s_sling_ball_mat
s 1
f 1//1 2//2 3//3
f 1//1 4//4 2//2
f 1//1 3//3 5//5
f 1//1 6//6 4//4
f 1//1 5//5 7//7
f 1//1 7//7 6//6
f 2//2 8//8 3//3
f 2//2 4//4 9//9
f 2//2 9//9 8//8
f 5//5 10//10 7//7
f 5//5 3//3 11//11
f 5//5 11//11 10//10
f 3//3 8//8 11//11
f 6//6 12//12 4//4
f 6//6 7//7 13//13
f 6//6 13//13 12//12
f 7//7 10//10 13//13
f 4//4 12//12 9//9
f 8//8 14//14 11//11
f 8//8 9//9 15//15
f 8//8 15//15 14//14
f 10//10 16//16 13//13
f 10//10 11//11 17//17
f 10//10 17//17 16//16
f 11//11 14//14 17//17
f 12//12 18//18 9//9
f 12//12 13//13 19//19
f 12//12 19//19 18//18
f 13//13 16//16 19//19
f 9//9 18//18 15//15
f 14//14 20//20 17//17
f 14//14 15//15 21//21
f 14//14 21//21 20//20
f 16//16 22//22 19//19
f 16//16 17//17 23//23
f 16//16 23//23 22//22
f 17//17 20//20 23//23
f 18//18 24//24 15//15
f 18//18 19//19 25//25
f 18//18 25//25 24//24
f 19//19 22//22 25//25
f 15//15 24//24 21//21
f 20//20 26//26 23//23
f 20//20 21//21 27//27
f 20//20 27//27 26//26
f 22//22 28//28 25//25
f 22//22 23//23 29//29
f 22//22 29//29 28//28
f 23//23 26//26 29//29
f 24//24 30//30 21//21
f 24//24 25//25 31//31
f 24//24 31//31 30//30
f 25//25 28//28 31//31
f 21//21 30//30 27//27
f 26//26 32//32 29//29
f 26//26 27//27 32//32
f 32//32 31//31 28//28
f 32//32 30//30 31//31
f 32//32 28//28 29//29
f 32//32 27//27 30//30
