# Blender v2.76 (sub 0) OBJ File: 'AnimalCrossingItem.blend'
# www.blender.org
mtllib sling.mtl
o vsn_mesh_0__mesh_0_.015
v -9.000314 1.499998 9.499971
v -1.482005 4.407908 8.563711
v -0.988457 4.928288 8.127061
v -9.000306 1.499999 7.499972
v -0.988458 3.887528 9.000360
v -9.000314 -1.500002 9.499971
v -9.000306 -1.500001 7.499971
v -0.988457 -4.928291 8.127059
v -1.482005 -4.407911 8.563709
v -0.988458 -3.887531 9.000359
v -9.000314 1.499998 9.499971
v -0.988457 4.928288 8.127061
v -1.482005 4.407908 8.563711
v -9.000306 1.499999 7.499972
v -0.988458 3.887528 9.000360
v -9.000314 -1.500002 9.499971
v -0.988457 -4.928291 8.127059
v -9.000306 -1.500001 7.499971
v -1.482005 -4.407911 8.563709
v -0.988458 -3.887531 9.000359
v -0.000000 -0.000001 4.642180
v 0.978120 -0.000001 4.133200
v -0.988458 3.887528 9.000360
v -1.482005 4.407908 8.563711
v -0.650000 -0.000001 3.309950
v -1.482005 -4.407911 8.563709
v -0.988458 -3.887531 9.000359
v -0.189880 -4.086301 8.833569
v 0.978120 -0.529008 3.118100
v -0.189880 -4.729531 8.293839
v -0.028115 -0.855951 3.000000
v -0.988457 -4.928291 8.127059
v -0.650000 -0.000001 3.309950
v -1.482005 -4.407911 8.563709
v -0.028115 0.855951 3.000000
v -0.988457 4.928288 8.127061
v -0.189880 4.729528 8.293840
v 0.978120 0.529006 3.118100
v -0.189880 4.086298 8.833570
v -1.482005 4.407908 8.563711
v 0.139890 -1.087199 -4.000000
v 1.417970 -0.671923 -4.000000
v -0.028115 -0.855951 -2.000000
v -0.650000 0.000000 -2.000000
v -0.650000 0.000001 -4.000000
v -0.650000 -0.000001 3.309950
v -0.028115 -0.855951 3.000000
v 0.978120 -0.529007 -2.000000
v 1.417970 0.671925 -4.000000
v 0.978120 0.529007 -2.000000
v 0.139890 1.087201 -4.000000
v -0.028115 0.855951 -2.000000
v -0.650000 0.000001 -4.000000
v -0.650000 0.000000 -2.000000
v -0.028115 0.855951 3.000000
v 0.978120 0.529006 3.118100
v 0.978120 -0.529008 3.118100
v 0.978120 -0.000001 4.133200
v 0.139890 1.087201 -4.000000
v 1.417970 0.671925 -4.000000
v -0.650000 0.000001 -4.000000
v 1.417970 -0.671923 -4.000000
v 0.139890 -1.087199 -4.000000
v -0.650000 -0.000001 3.309950
v -1.482005 4.407908 8.563711
v -0.189880 4.086298 8.833570
v -0.189880 4.729528 8.293840
v -0.988457 4.928288 8.127061
v -0.988458 3.887528 9.000360
v -1.482005 -4.407911 8.563709
v -0.189880 -4.729531 8.293839
v -0.189880 -4.086301 8.833569
v -0.988458 -3.887531 9.000359
v -0.988457 -4.928291 8.127059
v -9.500314 -0.000002 9.499969
v -9.500306 -0.000001 7.499969
v -9.000314 -1.500002 9.499971
v -9.000314 1.499998 9.499971
v -9.000306 1.499999 7.499972
v -9.000306 -1.500001 7.499971
v -9.500314 -0.000002 9.499969
v -9.000314 -1.500002 9.499971
v -9.500306 -0.000001 7.499969
v -9.000314 1.499998 9.499971
v -9.000306 1.499999 7.499972
v -9.000306 -1.500001 7.499971
vt 0.500000 0.347656
vt 6.596790 0.265625
vt 7.625000 0.242188
vt 7.625000 0.289063
vt 7.000000 0.292969
vt 7.000000 0.238281
vt 0.000000 0.206608
vt 0.000000 0.324642
vt 0.200000 0.625000
vt 0.400000 0.605176
vt 0.200000 1.000000
vt 0.000000 1.000000
vt 0.000000 0.576893
vt 0.400000 1.000000
vt 0.600000 0.583056
vt 0.600000 1.000000
vt 0.800000 0.593733
vt 0.800000 1.000000
vt 1.000000 0.576893
vt 1.000000 1.000000
vt 0.200000 0.347656
vt 0.400000 0.347656
vt 0.200000 0.476563
vt 0.000000 0.476563
vt 0.000000 0.347656
vt 0.000000 0.671875
vt 0.200000 0.671875
vt 0.400000 0.476563
vt 0.600000 0.347656
vt 0.600000 0.476563
vt 0.800000 0.347656
vt 0.800000 0.476563
vt 1.000000 0.347656
vt 1.000000 0.476563
vt 0.800000 0.671875
vt 0.600000 0.671875
vt 0.400000 0.671875
vt 0.500000 0.671875
vt 1.000000 0.671875
vt 0.968750 0.093750
vt 0.031250 0.093750
vt 0.968750 0.003906
vt 0.968750 0.183594
vt 0.031250 0.183594
vt 0.031250 0.003906
vn 0.000000 0.000000 -1.000000
vn 0.000000 0.642800 0.766000
vn 0.000000 -0.642800 0.766000
vn -0.382200 0.921000 0.074900
vn -0.169700 0.671100 0.721600
vn -0.274200 0.833200 0.480100
vn -0.393400 0.919300 0.000000
vn -0.119000 0.569500 0.813300
vn -0.382200 -0.921000 0.074900
vn -0.393400 -0.919300 0.000000
vn -0.274200 -0.833200 0.480100
vn -0.169700 -0.671100 0.721600
vn -0.119000 -0.569500 0.813300
vn 0.382200 -0.921000 -0.074900
vn 0.274200 -0.833200 -0.480100
vn 0.169700 -0.671100 -0.721600
vn 0.393400 -0.919300 0.000000
vn 0.119000 -0.569500 -0.813300
vn 0.382200 0.921000 -0.074900
vn 0.274200 0.833200 -0.480100
vn 0.393400 0.919300 0.000000
vn 0.169700 0.671100 -0.721600
vn 0.119000 0.569500 -0.813300
vn -0.387700 0.000000 0.921800
vn 0.932900 0.000000 0.360000
vn -0.365300 -0.736300 0.569500
vn -0.795700 -0.529400 0.294300
vn -0.898700 0.000000 0.438500
vn -0.795700 0.529300 0.294300
vn -0.365300 0.736300 0.569500
vn 0.779300 0.369400 0.506200
vn 0.757100 -0.582500 -0.295700
vn 0.779000 -0.561500 -0.279100
vn -0.278400 -0.725600 -0.629200
vn -0.358700 -0.699000 -0.618700
vn -0.861000 0.000000 -0.508500
vn -0.805100 -0.385300 -0.450800
vn -0.278400 0.725600 -0.629200
vn -0.358700 0.699000 -0.618700
vn 0.779000 0.561500 -0.279100
vn 0.757100 0.582500 -0.295700
vn 0.779300 -0.369400 0.506200
vn -0.805100 0.385300 -0.450800
vn -0.268700 -0.959100 0.088300
vn 0.803000 -0.555300 0.216300
vn -0.330300 -0.943000 0.039900
vn -0.809000 -0.587800 0.000000
vn -0.342700 -0.939400 0.000000
vn 0.795000 -0.596300 0.111500
vn 0.803000 0.555300 0.216300
vn 0.795000 0.596300 0.111500
vn -0.268700 0.959100 0.088300
vn -0.330300 0.943000 0.039900
vn -0.809000 0.587800 0.000000
vn -0.342700 0.939400 0.000000
vn 0.913300 0.407300 0.000000
vn 0.913300 -0.407300 0.000000
vn 1.000000 0.000000 0.000000
vn -1.000000 0.000000 0.000000
vn -0.948700 -0.316200 0.000000
vn -0.948700 0.316200 0.000000
vn 0.948700 0.316200 0.000000
vn 0.948700 -0.316200 0.000000
usemtl sling0_mat
s off
f 59/1/1 60/1/1 61/1/1
f 61/1/1 60/1/1 62/1/1
f 61/1/1 62/1/1 63/1/1
f 65/2/2 66/3/2 67/4/2
f 65/2/2 67/4/2 68/5/2
f 65/2/2 69/6/2 66/3/2
f 70/2/3 71/4/3 72/3/3
f 70/2/3 72/3/3 73/6/3
f 70/2/3 74/5/3 71/4/3
s 1
f 1/7/4 2/2/5 3/5/6
f 1/7/4 3/5/6 4/8/7
f 1/7/4 5/6/8 2/2/5
f 6/7/9 7/8/10 8/5/11
f 6/7/9 8/5/11 9/2/12
f 6/7/9 9/2/12 10/6/13
f 11/7/14 12/5/15 13/2/16
f 11/7/14 14/8/17 12/5/15
f 11/7/14 13/2/16 15/6/18
f 16/7/19 17/5/20 18/8/21
f 16/7/19 19/2/22 17/5/20
f 16/7/19 20/6/23 19/2/22
f 21/9/24 22/10/25 23/11/26
f 21/9/24 23/11/26 24/12/27
f 25/13/28 21/9/24 24/12/27
f 25/13/28 26/12/29 21/9/24
f 26/12/29 27/11/30 21/9/24
f 21/9/24 27/11/30 22/10/25
f 27/11/30 28/14/31 22/10/25
f 22/10/25 28/14/31 29/15/32
f 28/14/31 30/16/33 29/15/32
f 29/15/32 30/16/33 31/17/34
f 30/16/33 32/18/35 31/17/34
f 31/17/34 32/18/35 33/19/36
f 32/18/35 34/20/37 33/19/36
f 35/17/38 33/19/36 36/18/39
f 35/17/38 36/18/39 37/16/40
f 38/15/41 35/17/38 37/16/40
f 38/15/41 37/16/40 39/14/42
f 22/10/25 38/15/41 39/14/42
f 22/10/25 39/14/42 23/11/26
f 33/19/36 40/20/43 36/18/39
f 41/21/44 42/22/45 43/23/46
f 41/21/44 43/23/46 44/24/47
f 45/25/47 41/21/44 44/24/47
f 44/24/47 43/23/46 46/26/47
f 43/23/46 47/27/48 46/26/47
f 43/23/46 48/28/49 47/27/48
f 42/22/45 48/28/49 43/23/46
f 42/22/45 49/29/50 48/28/49
f 49/29/50 50/30/51 48/28/49
f 49/29/50 51/31/52 50/30/51
f 51/31/52 52/32/53 50/30/51
f 51/31/52 53/33/54 52/32/53
f 53/33/54 54/34/54 52/32/53
f 52/32/53 54/34/54 55/35/55
f 52/32/53 55/35/55 56/36/56
f 50/30/51 52/32/53 56/36/56
f 50/30/51 56/36/56 57/37/57
f 48/28/49 50/30/51 57/37/57
f 48/28/49 57/37/57 47/27/48
f 57/37/57 56/36/56 58/38/58
f 54/34/54 64/39/54 55/35/55
f 75/40/59 76/41/59 77/42/60
f 78/43/61 76/41/59 75/40/59
f 78/43/61 79/44/61 76/41/59
f 77/42/60 76/41/59 80/45/60
f 81/40/58 82/42/62 83/41/58
f 84/43/63 81/40/58 83/41/58
f 84/43/63 83/41/58 85/44/63
f 82/42/62 86/45/62 83/41/58
