# Blender v2.76 (sub 0) OBJ File: 'AnimalCrossingItem.blend'
# www.blender.org
mtllib pole.mtl
o vsn_mesh_0__mesh_0_.007
v 0.624532 0.464795 6.999990
v -0.259563 0.752056 6.999990
v 0.523683 0.399274 17.499960
v 0.523683 -0.399280 17.499960
v 0.624532 -0.464798 6.999990
v -0.235788 -0.646047 17.499960
v -0.259564 -0.752058 6.999990
v -0.705166 -0.000003 17.499960
v -0.805965 -0.000001 6.999990
v -0.293567 -0.903502 -8.000000
v -0.950000 0.000001 -8.000000
v 0.768566 -0.558395 -8.000000
v 0.768566 0.558396 -8.000000
v -0.293565 0.903504 -8.000000
v -0.950000 0.000001 -8.000000
v -0.805965 -0.000001 6.999990
v -0.235787 0.646041 17.499960
v 0.422823 0.333754 27.999689
v 0.422824 -0.333764 27.999689
v -0.212025 -0.540038 27.999689
v -0.604383 -0.000005 27.999689
v -0.537191 -0.000006 34.999798
v -0.196183 -0.469363 34.999798
v 0.355581 -0.290087 34.999798
v 0.355579 0.290071 34.999798
v -0.212025 0.540028 27.999689
v -0.705166 -0.000003 17.499960
v -0.604383 -0.000005 27.999689
v -0.196183 0.469351 34.999798
v 0.288337 0.246392 41.999928
v 0.288339 -0.246406 41.999928
v -0.180340 -0.398689 41.999928
v -0.469999 -0.000007 41.999928
v -0.000139 -0.000008 49.000000
v -0.000139 -0.000008 49.000000
v -0.000139 -0.000008 49.000000
v -0.180340 0.398675 41.999928
v -0.537191 -0.000006 34.999798
v -0.469999 -0.000007 41.999928
v -0.000139 -0.000008 49.000000
v -0.000139 -0.000008 49.000000
v -0.293565 0.903504 -8.000000
v 0.768566 0.558396 -8.000000
v 0.000000 0.000001 -8.000000
v -0.950000 0.000001 -8.000000
v -0.293567 -0.903502 -8.000000
v 0.768566 -0.558395 -8.000000
vt 0.507212 0.374508
vt 0.196973 0.250000
vt 0.321973 0.250000
vt 0.184428 0.437500
vt 0.084518 0.437500
vt 0.071973 0.250000
vt -0.015392 0.437500
vt -0.053027 0.250000
vt -0.115302 0.437500
vt -0.178027 0.250000
vt -0.053027 0.000000
vt -0.178027 0.000000
vt 0.071973 0.000000
vt 0.196973 0.000000
vt 0.321973 0.000000
vt 0.446973 0.000000
vt 0.446973 0.250000
vt 0.284338 0.437500
vt 0.184428 0.640625
vt 0.084518 0.640625
vt -0.015392 0.640625
vt -0.115302 0.640625
vt -0.115302 0.750000
vt -0.015392 0.750000
vt 0.084518 0.750000
vt 0.184428 0.750000
vt 0.284338 0.640625
vt 0.384248 0.437500
vt 0.384248 0.640625
vt 0.284338 0.750000
vt 0.184428 0.875324
vt 0.084518 0.875324
vt -0.015392 0.875324
vt -0.115302 0.875324
vt -0.065347 1.000000
vt 0.034563 1.000000
vt 0.134473 1.000000
vt 0.284338 0.875324
vt 0.384248 0.750000
vt 0.384248 0.875324
vt 0.334293 1.000000
vt 0.234383 1.000000
vn 0.000000 0.000000 -1.000000
vn 0.809000 0.587700 0.011400
vn -0.309000 0.951000 0.010300
vn 0.809000 -0.587700 0.011400
vn -0.309000 -0.951000 0.010300
vn -0.809000 -0.587800 0.007800
vn -0.308600 -0.951100 0.010300
vn 0.809100 -0.587500 0.011400
vn 0.809100 0.587500 0.011400
vn -0.308600 0.951100 0.010300
vn -0.809000 0.587800 0.007800
vn 0.808100 0.588200 0.032400
vn 0.808100 -0.588200 0.032400
vn -0.310100 -0.950000 0.035800
vn -0.808600 -0.587500 0.030600
vn -0.807800 -0.586900 0.054200
vn 0.308700 -0.950000 0.046100
vn 0.999100 0.000000 0.041200
vn -0.310100 0.950000 0.035800
vn -0.808600 0.587500 0.030600
vn -0.807800 0.586900 0.054200
vn 0.308700 0.950000 0.046100
usemtl pole0_mat.004
s off
f 42/1/1 43/1/1 44/1/1
f 45/1/1 42/1/1 44/1/1
f 46/1/1 45/1/1 44/1/1
f 47/1/1 46/1/1 44/1/1
f 43/1/1 47/1/1 44/1/1
s 1
f 1/2/2 2/3/3 3/4/2
f 1/2/2 3/4/2 4/5/4
f 5/6/4 1/2/2 4/5/4
f 5/6/4 4/5/4 6/7/5
f 7/8/5 5/6/4 6/7/5
f 7/8/5 6/7/5 8/9/6
f 9/10/6 7/8/5 8/9/6
f 10/11/7 7/8/5 9/10/6
f 11/12/6 10/11/7 9/10/6
f 10/11/7 12/13/8 7/8/5
f 12/13/8 5/6/4 7/8/5
f 12/13/8 13/14/9 5/6/4
f 13/14/9 1/2/2 5/6/4
f 13/14/9 14/15/10 1/2/2
f 14/15/10 2/3/3 1/2/2
f 14/15/10 15/16/11 2/3/3
f 15/16/11 16/17/11 2/3/3
f 2/3/3 16/17/11 17/18/3
f 2/3/3 17/18/3 3/4/2
f 3/4/2 17/18/3 18/19/2
f 3/4/2 18/19/2 19/20/4
f 4/5/4 3/4/2 19/20/4
f 4/5/4 19/20/4 20/21/5
f 6/7/5 4/5/4 20/21/5
f 6/7/5 20/21/5 21/22/6
f 8/9/6 6/7/5 21/22/6
f 21/22/6 20/21/5 22/23/6
f 20/21/5 23/24/5 22/23/6
f 20/21/5 19/20/4 23/24/5
f 19/20/4 24/25/4 23/24/5
f 19/20/4 18/19/2 24/25/4
f 18/19/2 25/26/2 24/25/4
f 18/19/2 26/27/3 25/26/2
f 17/18/3 26/27/3 18/19/2
f 17/18/3 27/28/11 26/27/3
f 16/17/11 27/28/11 17/18/3
f 27/28/11 28/29/11 26/27/3
f 26/27/3 28/29/11 29/30/3
f 26/27/3 29/30/3 25/26/2
f 25/26/2 29/30/3 30/31/12
f 25/26/2 30/31/12 31/32/13
f 24/25/4 25/26/2 31/32/13
f 24/25/4 31/32/13 32/33/14
f 23/24/5 24/25/4 32/33/14
f 23/24/5 32/33/14 33/34/15
f 22/23/6 23/24/5 33/34/15
f 33/34/15 32/33/14 34/35/16
f 32/33/14 31/32/13 35/36/17
f 31/32/13 30/31/12 36/37/18
f 29/30/3 37/38/19 30/31/12
f 29/30/3 38/39/11 37/38/19
f 28/29/11 38/39/11 29/30/3
f 38/39/11 39/40/20 37/38/19
f 37/38/19 39/40/20 40/41/21
f 30/31/12 37/38/19 41/42/22
