# Blender v2.76 (sub 0) OBJ File: 'AnimalCrossingItem.blend'
# www.blender.org
mtllib uki.mtl
o vsn_mesh_0__mesh_0_.008
v -0.897582 -1.870470 -2.166950
v 0.498120 -2.702910 -1.202570
v -1.202570 -2.702910 -0.498120
v -2.166950 -1.870470 -0.897582
v -2.068130 -0.667563 -2.068130
v 0.000000 -0.667563 -2.924780
v 0.897582 -1.870470 -2.166950
v 2.068130 -0.667563 -2.068130
v 2.166950 -1.870470 -0.897582
v 2.924780 -0.667563 -0.000000
v 2.166950 -1.870470 0.897582
v 2.068130 -0.667563 2.068130
v 0.897582 -1.870470 2.166950
v 0.000000 -0.667563 2.924780
v -0.897582 -1.870470 2.166950
v -2.068130 -0.667563 2.068130
v -2.166950 -1.870470 0.897582
v -2.924780 -0.667563 -0.000000
v -2.702150 0.667563 -1.119270
v -1.119270 0.667563 -2.702150
v -1.658510 1.870470 -1.658510
v 0.000000 1.870470 -2.345490
v 0.000000 2.702910 -1.301649
v -1.301650 2.702910 0.000000
v 0.000000 3.000000 0.000000
v 0.000000 2.702910 1.301650
v 1.301650 2.702910 0.000000
v 1.658510 1.870470 -1.658510
v 1.119270 0.667563 -2.702150
v 2.702150 0.667563 -1.119270
v 2.702150 0.667563 1.119270
v 2.345490 1.870470 0.000000
v 1.658520 1.870470 1.658520
v 0.000000 1.870470 2.345490
v -1.658510 1.870470 1.658510
v -2.345490 1.870470 0.000000
v -2.702150 0.667563 1.119270
v -1.119270 0.667563 2.702150
v 1.119270 0.667563 2.702150
v -1.202570 -2.702910 -0.498120
v -0.498120 -2.702910 1.202569
v 1.202570 -2.702910 0.498120
v 2.166950 -1.870470 -0.897582
v 2.166950 -1.870470 0.897582
v 0.498120 -2.702910 -1.202570
v 0.897582 -1.870470 -2.166950
v -0.897582 -1.870470 -2.166950
v 0.000000 -3.000000 -0.000000
v -2.166950 -1.870470 -0.897582
v 0.000000 -0.667563 -2.924780
v 2.068130 -0.667563 -2.068130
v -2.068130 -0.667563 -2.068130
v -1.119270 0.667563 -2.702150
v 2.068130 -0.667563 2.068130
v 2.924780 -0.667563 -0.000000
v 0.000000 -0.000000 1.000000
v -1.000000 0.000000 0.000000
v 0.000000 -8.000000 -0.000001
v 1.000000 0.000000 0.000000
v 0.000000 0.000000 -1.000000
vt 0.687500 0.934471
vt 0.687500 0.960907
vt 0.687500 0.896269
vt 0.687500 0.853869
vt 0.687500 0.815668
vt 0.687500 0.789232
vt 0.687500 0.779797
vt 0.687500 0.970342
vt 0.812500 0.996094
vt 0.812500 0.753906
vn -0.341600 -0.596700 -0.726100
vn -0.193000 -0.863500 -0.466000
vn -0.335500 -0.817000 -0.468900
vn -0.743900 -0.546500 -0.384700
vn -0.739100 -0.210800 -0.639800
vn 0.000000 -0.403800 -0.914800
vn 0.342200 -0.447800 -0.826100
vn 0.739100 -0.210800 -0.639800
vn 0.826100 -0.447800 -0.342200
vn 0.975000 -0.210800 -0.070200
vn 0.743900 -0.546500 0.384700
vn 0.639800 -0.210800 0.739100
vn 0.299300 -0.622900 0.722700
vn 0.000000 -0.206400 0.978500
vn -0.305200 -0.603400 0.736700
vn -0.691900 -0.206400 0.691900
vn -0.722700 -0.622900 0.299300
vn -0.978500 -0.206400 0.000000
vn -0.904000 0.206400 -0.374400
vn -0.362500 0.320200 -0.875200
vn -0.553100 0.622900 -0.553100
vn 0.000000 0.603400 -0.797400
vn 0.000000 0.899100 -0.437600
vn -0.437600 0.899100 0.000000
vn 0.000000 1.000000 0.000000
vn 0.000000 0.899100 0.437600
vn 0.437600 0.899100 0.000000
vn 0.553100 0.622900 -0.553100
vn 0.374400 0.206400 -0.904000
vn 0.904000 0.206400 -0.374400
vn 0.904000 0.206300 0.374400
vn 0.797400 0.603400 0.000000
vn 0.553100 0.622900 0.553100
vn 0.000000 0.603400 0.797400
vn -0.553100 0.622900 0.553100
vn -0.797400 0.603400 0.000000
vn -0.904000 0.206400 0.374400
vn -0.374400 0.206400 0.904000
vn 0.374400 0.206300 0.904000
vn -0.425700 -0.904600 0.019200
vn -0.167500 -0.899100 0.404300
vn 0.404300 -0.899100 0.167500
vn 0.531700 -0.817800 -0.220200
vn 0.653400 -0.757000 0.000000
vn 0.246000 -0.890400 -0.382900
vn 0.238600 -0.781800 -0.576000
vn 0.000000 -0.757000 -0.653400
vn 0.000000 -1.000000 0.000000
vn -0.653400 -0.757000 0.000000
vn 0.000000 -0.020900 -0.999800
vn 0.377500 -0.164500 -0.911300
vn -0.377500 -0.164500 -0.911300
vn 0.911300 -0.164500 0.377500
vn 0.000000 -0.124000 0.992200
vn -0.992200 -0.124000 0.000000
vn 0.992200 -0.124000 0.000000
vn 0.000000 -0.124000 -0.992200
usemtl uki0_mat.003
s 1
f 1/1/1 2/2/2 3/2/3
f 1/1/1 3/2/3 4/1/4
f 1/1/1 4/1/4 5/3/5
f 1/1/1 5/3/5 6/3/6
f 7/1/7 1/1/1 6/3/6
f 7/1/7 6/3/6 8/3/8
f 9/1/9 7/1/7 8/3/8
f 9/1/9 8/3/8 10/3/10
f 11/1/11 9/1/9 10/3/10
f 11/1/11 10/3/10 12/3/12
f 13/1/13 11/1/11 12/3/12
f 13/1/13 12/3/12 14/3/14
f 15/1/15 13/1/13 14/3/14
f 15/1/15 14/3/14 16/3/16
f 17/1/17 15/1/15 16/3/16
f 17/1/17 16/3/16 18/3/18
f 4/1/4 17/1/17 18/3/18
f 4/1/4 18/3/18 5/3/5
f 5/3/5 18/3/18 19/4/19
f 20/4/20 5/3/5 19/4/19
f 20/4/20 19/4/19 21/5/21
f 22/5/22 20/4/20 21/5/21
f 23/6/23 22/5/22 21/5/21
f 23/6/23 21/5/21 24/6/24
f 25/7/25 23/6/23 24/6/24
f 25/7/25 24/6/24 26/6/26
f 25/7/25 26/6/26 27/6/27
f 25/7/25 27/6/27 23/6/23
f 23/6/23 27/6/27 28/5/28
f 23/6/23 28/5/28 22/5/22
f 28/5/28 29/4/29 22/5/22
f 30/4/30 29/4/29 28/5/28
f 30/4/30 8/3/8 29/4/29
f 10/3/10 8/3/8 30/4/30
f 31/4/31 10/3/10 30/4/30
f 31/4/31 30/4/30 32/5/32
f 33/5/33 31/4/31 32/5/32
f 27/6/27 33/5/33 32/5/32
f 26/6/26 33/5/33 27/6/27
f 26/6/26 34/5/34 33/5/33
f 26/6/26 35/5/35 34/5/34
f 24/6/24 35/5/35 26/6/26
f 24/6/24 36/5/36 35/5/35
f 24/6/24 21/5/21 36/5/36
f 21/5/21 19/4/19 36/5/36
f 19/4/19 37/4/37 36/5/36
f 19/4/19 18/3/18 37/4/37
f 18/3/18 16/3/16 37/4/37
f 37/4/37 16/3/16 38/4/38
f 37/4/37 38/4/38 35/5/35
f 36/5/36 37/4/37 35/5/35
f 35/5/35 38/4/38 34/5/34
f 38/4/38 39/4/39 34/5/34
f 38/4/38 14/3/14 39/4/39
f 16/3/16 14/3/14 38/4/38
f 14/3/14 12/3/12 39/4/39
f 39/4/39 12/3/12 31/4/31
f 39/4/39 31/4/31 33/5/33
f 34/5/34 39/4/39 33/5/33
f 17/1/17 40/2/40 41/2/41
f 17/1/17 41/2/41 15/1/15
f 13/1/13 15/1/15 41/2/41
f 13/1/13 41/2/41 42/2/42
f 13/1/13 42/2/42 11/1/11
f 43/1/43 44/1/44 42/2/42
f 43/1/43 42/2/42 45/2/45
f 43/1/43 45/2/45 46/1/46
f 47/1/47 46/1/46 45/2/45
f 45/2/45 48/8/48 40/2/40
f 45/2/45 42/2/42 48/8/48
f 41/2/41 48/8/48 42/2/42
f 40/2/40 48/8/48 41/2/41
f 17/1/17 49/1/49 40/2/40
f 29/4/29 50/3/50 20/4/20
f 29/4/29 20/4/20 22/5/22
f 51/3/51 50/3/50 29/4/29
f 50/3/50 52/3/52 53/4/52
f 32/5/32 30/4/30 28/5/28
f 28/5/28 27/6/27 32/5/32
f 54/3/53 55/3/53 31/4/31
f 56/9/54 57/9/55 58/10/48
f 59/9/56 56/9/54 58/10/48
f 60/9/57 59/9/56 58/10/48
f 57/9/55 60/9/57 58/10/48
