# Blender v2.76 (sub 0) OBJ File: 'AnimalCrossingItem.blend'
# www.blender.org
mtllib g_axe.mtl
o vsn_mesh_1__mesh_1_.004
v 2.364310 1.567767 7.613490
v 7.135777 -0.000001 5.909394
v 4.204733 -0.000001 4.409790
v 9.385183 -0.000001 8.363292
v 10.543970 -0.000002 11.839650
v 2.841456 1.567765 18.383369
v -1.248373 1.635929 17.224590
v -0.703062 1.635931 8.431456
v 10.134980 -0.000003 15.861310
v -3.906762 1.022456 8.295128
v 8.839872 -0.000003 19.065010
v 6.181483 -0.000004 21.723400
v -4.724728 1.022454 17.156420
v 2.364310 -1.567769 7.613489
v 10.543970 -0.000002 11.839650
v 2.841456 -1.567771 18.383369
v 9.385183 -0.000001 8.363292
v -1.248373 -1.635935 17.224590
v 7.135777 -0.000001 5.909394
v -0.703062 -1.635933 8.431456
v 4.204733 -0.000001 4.409790
v 10.134980 -0.000003 15.861310
v -3.906762 -1.022458 8.295128
v -4.724728 -1.022460 17.156420
v 8.839872 -0.000003 19.065010
v 6.181483 -0.000004 21.723400
v -1.248373 -1.635935 17.224590
v -1.248373 1.635929 17.224590
v -4.724728 1.022454 17.156420
v 2.841456 1.567765 18.383369
v -4.724728 -1.022460 17.156420
v 2.841456 -1.567771 18.383369
v 6.181483 -0.000004 21.723400
v -0.703062 -1.635933 8.431456
v -3.906762 -1.022458 8.295128
v -3.906762 1.022456 8.295128
v -0.703062 1.635931 8.431456
v 2.364310 1.567767 7.613490
v 2.364310 -1.567769 7.613489
v 4.204733 -0.000001 4.409790
v -3.906762 -1.022458 8.295128
v -4.724728 1.022454 17.156420
v -3.906762 1.022456 8.295128
v -4.724728 -1.022460 17.156420
vt 1.000000 0.623529
vt 0.874510 0.874510
vt 0.874510 0.623529
vt 1.000000 0.874510
vt 0.474510 0.596079
vt 0.192157 0.549020
vt 0.356863 0.498039
vt 0.062745 0.623529
vt 0.000000 0.717647
vt 0.447059 0.909804
vt 0.686275 0.874510
vt 0.658823 0.623529
vt 0.019608 0.831373
vt 0.101961 0.917647
vt 0.250980 1.000000
vt 0.701961 0.968628
vt 0.894118 0.929412
vt 0.462745 1.000000
vt 0.772549 0.529412
vt 0.949020 0.560784
vt 0.580392 0.498039
vn -0.995800 0.000000 -0.091900
vn 0.140000 0.985600 -0.094600
vn 0.217900 0.941700 -0.256300
vn 0.178100 0.920400 -0.348100
vn 0.228000 0.967000 -0.113500
vn 0.209100 0.977700 -0.019000
vn 0.146900 0.987800 0.051800
vn -0.074800 0.997200 -0.007400
vn -0.072500 0.997300 -0.004500
vn 0.224800 0.973400 0.045000
vn -0.184200 0.982800 -0.012700
vn 0.235500 0.961800 0.139700
vn 0.222700 0.949100 0.222700
vn -0.173400 0.984700 -0.016000
vn 0.140000 -0.985600 -0.094600
vn 0.209100 -0.977700 -0.019000
vn 0.146900 -0.987800 0.051800
vn 0.228000 -0.967000 -0.113500
vn -0.074800 -0.997200 -0.007400
vn 0.217900 -0.941700 -0.256300
vn -0.072500 -0.997300 -0.004500
vn 0.178100 -0.920400 -0.348100
vn 0.224800 -0.973400 0.045000
vn -0.184200 -0.982800 -0.012700
vn -0.173400 -0.984700 -0.016000
vn 0.235500 -0.961800 0.139700
vn 0.222700 -0.949100 0.222700
vn -0.154100 0.000000 0.988000
vn -0.019600 0.000000 0.999800
vn -0.479300 0.000000 0.877600
vn -0.707100 0.000000 0.707100
vn -0.117500 0.000000 -0.993100
vn 0.042500 0.000000 -0.999100
vn -0.557500 0.000000 -0.830200
vn -0.867100 0.000000 -0.498100
usemtl m_axe0_mat.005
s off
f 41/1/1 42/2/1 43/3/1
f 41/1/1 44/4/1 42/2/1
s 1
f 1/5/2 2/6/3 3/7/4
f 1/5/2 4/8/5 2/6/3
f 1/5/2 5/9/6 4/8/5
f 1/5/2 6/10/7 5/9/6
f 1/5/2 7/11/8 6/10/7
f 1/5/2 8/12/9 7/11/8
f 5/9/6 6/10/7 9/13/10
f 8/12/9 10/3/11 7/11/8
f 6/10/7 11/14/12 9/13/10
f 6/10/7 12/15/13 11/14/12
f 10/3/11 13/2/14 7/11/8
f 14/5/15 15/9/16 16/10/17
f 14/5/15 17/8/18 15/9/16
f 14/5/15 16/10/17 18/11/19
f 14/5/15 19/6/20 17/8/18
f 14/5/15 18/11/19 20/12/21
f 14/5/15 21/7/22 19/6/20
f 15/9/16 22/13/23 16/10/17
f 18/11/19 23/3/24 20/12/21
f 18/11/19 24/2/25 23/3/24
f 22/13/23 25/14/26 16/10/17
f 25/14/26 26/15/27 16/10/17
f 27/16/28 28/11/28 29/2/29
f 27/16/28 30/10/30 28/11/28
f 27/16/28 29/2/29 31/17/29
f 27/16/28 32/18/30 30/10/30
f 32/18/30 33/15/31 30/10/30
f 34/19/32 35/20/33 36/3/33
f 34/19/32 36/3/33 37/12/32
f 34/19/32 37/12/32 38/5/34
f 34/19/32 38/5/34 39/21/34
f 38/5/34 40/7/35 39/21/34
o vsn_mesh_0__mesh_0_.004
v -0.789641 0.000000 -0.953419
v -0.554198 -0.824052 -6.957236
v -0.201032 -0.824053 -0.953419
v -1.142807 0.000001 -6.957236
v -0.671920 -0.000001 5.521285
v -0.554198 0.824054 -6.957236
v -0.201032 0.824053 -0.953419
v 0.505300 -0.824052 -6.957236
v -1.025085 -0.941774 -9.547118
v 0.269856 -0.941774 -9.664840
v -0.083310 0.824052 5.521285
v -0.083310 -0.824054 5.521285
v -1.025085 0.941777 -9.547118
v 0.505300 0.824054 -6.957236
v 0.269856 0.941777 -9.664840
v 0.858465 -0.824053 -0.953419
v -1.613695 0.000002 -9.547118
v 0.858465 0.824053 -0.953419
v 0.976187 0.824052 5.521285
v 0.976187 0.000002 -9.664840
v 0.976187 -0.824054 5.521285
v 1.447075 0.000000 -0.953419
v 1.093909 0.000001 -6.957236
v 1.447075 0.000000 -0.953419
v 1.564797 -0.000001 5.521285
v 1.093909 0.000001 -6.957236
v 1.564797 -0.000001 5.521285
v 0.976187 0.000002 -9.664840
v -0.318754 -0.000003 20.118799
v -1.025085 -0.941778 19.765640
v 0.387578 -0.941778 19.765640
v -1.731417 -0.000003 19.765640
v 1.093909 -0.000003 19.765640
v -1.025085 0.941772 19.765640
v 0.387578 0.941772 19.765640
v -0.318754 0.000002 -9.782562
v 0.269856 -0.941774 -9.664840
v -1.025085 -0.941774 -9.547118
v 0.976187 0.000002 -9.664840
v -1.613695 0.000002 -9.547118
v 0.269856 0.941777 -9.664840
v -1.025085 0.941777 -9.547118
v -0.318754 0.824051 15.056760
v -1.025085 0.941772 19.765640
v 0.387578 0.941772 19.765640
v -0.907363 -0.000002 15.056760
v 0.740743 0.824051 15.056760
v -0.671920 -0.000001 5.521285
v -0.083310 0.824052 5.521285
v -1.731417 -0.000003 19.765640
v 1.093909 -0.000003 19.765640
v 0.976187 0.824052 5.521285
v -0.318754 -0.824056 15.056760
v -0.083310 -0.824054 5.521285
v -1.025085 -0.941778 19.765640
v 1.329353 -0.000002 15.056760
v 0.740743 -0.824056 15.056760
v 0.976187 -0.824054 5.521285
v 0.387578 -0.941778 19.765640
v 1.564797 -0.000001 5.521285
v 1.329353 -0.000002 15.056760
v 1.564797 -0.000001 5.521285
v 1.093909 -0.000003 19.765640
vt 0.185505 0.379075
vt -0.564580 0.419403
vt 0.185505 0.419403
vt -0.564580 0.379075
vt 1.024310 0.379075
vt -0.564580 0.330683
vt 0.185505 0.330683
vt -0.564580 0.459730
vt -0.951721 0.419403
vt -0.951721 0.459730
vt 1.024310 0.330683
vt 1.024310 0.419403
vt -0.951721 0.330683
vt -0.564580 0.290356
vt -0.951721 0.290356
vt 0.185505 0.459730
vt -0.951721 0.379075
vt 0.185505 0.290356
vt 1.024310 0.290356
vt -0.951721 0.250028
vt 1.024310 0.459730
vt 0.185505 0.500057
vt -0.564580 0.500057
vt 0.185505 0.250028
vt 1.024310 0.250028
vt -0.564580 0.250028
vt 1.024310 0.500057
vt -0.951721 0.500057
vt 0.935590 0.064523
vt 0.879132 0.088720
vt 0.879132 0.032262
vt 0.935590 0.120981
vt 0.935590 0.000000
vt 1.000114 0.088720
vt 1.000114 0.032262
vt 0.467795 -0.040327
vt 0.879132 -0.040327
vt 0.879132 -0.080654
vt 0.467795 0.000000
vt 0.467795 -0.080654
vt 0.024196 0.000000
vt 0.024196 -0.040327
vt 0.879132 0.000000
vt 0.879132 -0.120981
vt 0.024196 -0.080654
vt 0.467795 0.040327
vt 0.024196 0.040327
vt 0.879132 0.040327
vt 0.467795 -0.120981
vt 0.467795 0.088720
vt 0.024196 0.088720
vt 0.024196 -0.120981
vt 0.467795 0.129047
vt 0.024196 0.129047
vt 0.879132 0.129047
vn -0.999200 0.000000 0.038700
vn -0.443300 -0.893400 0.072800
vn -0.452700 -0.891500 0.017300
vn -0.990900 0.000000 0.134300
vn -0.999800 0.000000 0.018200
vn -0.443300 0.893400 0.072800
vn -0.452700 0.891500 0.017300
vn 0.461800 -0.886900 -0.012600
vn -0.493000 -0.862000 0.117900
vn 0.436500 -0.899700 0.001800
vn -0.453400 0.891300 0.008200
vn -0.453400 -0.891300 0.008200
vn -0.493000 0.862000 0.117900
vn 0.461800 0.886900 -0.012600
vn 0.436500 0.899700 0.001800
vn 0.462000 -0.886700 -0.017900
vn -0.983900 0.000000 0.178900
vn 0.462000 0.886700 -0.017900
vn 0.461700 0.887000 -0.008400
vn 0.802400 0.595300 -0.041600
vn 0.461700 -0.887000 -0.008400
vn 0.813300 -0.581000 -0.031100
vn 0.813000 -0.580700 -0.041700
vn 0.813300 0.581000 -0.031100
vn 0.813600 0.581200 -0.014800
vn 0.813000 0.580700 -0.041700
vn 0.813600 -0.581200 -0.014800
vn 0.802400 -0.595300 -0.041600
vn 0.000000 0.000000 1.000000
vn -0.138800 -0.254800 0.957000
vn 0.138800 -0.254800 0.957000
vn -0.242500 0.000000 0.970100
vn 0.242500 0.000000 0.970100
vn -0.138800 0.254800 0.957000
vn 0.138800 0.254800 0.957000
vn -0.057700 0.000000 -0.998300
vn 0.007700 -0.119300 -0.992800
vn -0.139600 -0.140300 -0.980200
vn 0.090500 0.000000 -0.995900
vn -0.178900 0.000000 -0.983900
vn 0.007700 0.119300 -0.992800
vn -0.139600 0.140300 -0.980200
vn -0.443300 0.895000 -0.049300
vn -0.475900 0.874200 -0.095800
vn 0.427100 0.904100 0.009400
vn -0.995100 0.000000 -0.098500
vn 0.463900 0.885800 0.011000
vn -0.999700 0.000000 -0.024700
vn -0.451800 0.892000 -0.011100
vn -0.985000 0.000000 -0.172400
vn 0.801000 0.596900 0.044400
vn 0.463200 0.886200 0.011400
vn -0.443300 -0.895000 -0.049300
vn -0.451800 -0.892000 -0.011100
vn -0.475900 -0.874200 -0.095800
vn 0.813300 0.581000 0.030200
vn 0.463900 -0.885800 0.011000
vn 0.463200 -0.886200 0.011400
vn 0.427100 -0.904100 0.009400
vn 0.813600 0.581100 0.020100
vn 0.813300 -0.581000 0.030200
vn 0.813600 -0.581100 0.020100
vn 0.801000 -0.596900 0.044400
usemtl m_axe0_mat.005
s 1
f 45/22/36 46/23/37 47/24/38
f 45/22/36 48/25/39 46/23/37
f 45/22/36 47/24/38 49/26/40
f 45/22/36 50/27/41 48/25/39
f 45/22/36 49/26/40 51/28/42
f 45/22/36 51/28/42 50/27/41
f 46/23/37 52/29/43 47/24/38
f 46/23/37 48/25/39 53/30/44
f 46/23/37 54/31/45 52/29/43
f 46/23/37 53/30/44 54/31/45
f 49/26/40 55/32/46 51/28/42
f 49/26/40 47/24/38 56/33/47
f 50/27/41 57/34/48 48/25/39
f 50/27/41 51/28/42 58/35/49
f 50/27/41 59/36/50 57/34/48
f 50/27/41 58/35/49 59/36/50
f 52/29/43 60/37/51 47/24/38
f 47/24/38 60/37/51 56/33/47
f 53/30/44 48/25/39 61/38/52
f 61/38/52 48/25/39 57/34/48
f 55/32/46 62/39/53 51/28/42
f 55/32/46 63/40/54 62/39/53
f 51/28/42 62/39/53 58/35/49
f 59/36/50 58/35/49 64/41/55
f 60/37/51 65/42/56 56/33/47
f 60/37/51 66/43/57 65/42/56
f 60/37/51 67/44/58 66/43/57
f 60/37/51 52/29/43 67/44/58
f 63/40/54 68/45/59 62/39/53
f 63/40/54 69/46/60 68/45/59
f 58/35/49 70/47/61 64/41/55
f 58/35/49 62/39/53 70/47/61
f 70/47/61 62/39/53 68/45/59
f 65/42/56 66/43/57 71/48/62
f 52/29/43 72/49/63 67/44/58
f 52/29/43 54/31/45 72/49/63
f 73/50/64 74/51/65 75/52/66
f 73/50/64 76/53/67 74/51/65
f 73/50/64 75/52/66 77/54/68
f 73/50/64 78/55/69 76/53/67
f 73/50/64 77/54/68 79/56/70
f 73/50/64 79/56/70 78/55/69
f 80/50/71 81/56/72 82/55/73
f 80/50/71 83/54/74 81/56/72
f 80/50/71 82/55/73 84/53/75
f 80/50/71 85/52/76 83/54/74
f 80/50/71 84/53/75 86/51/77
f 80/50/71 86/51/77 85/52/76
f 87/57/78 88/58/79 89/59/80
f 87/57/78 90/60/81 88/58/79
f 87/57/78 89/59/80 91/61/82
f 87/57/78 92/62/83 90/60/81
f 87/57/78 91/61/82 93/63/84
f 87/57/78 93/63/84 92/62/83
f 88/58/79 90/60/81 94/64/85
f 89/59/80 95/65/86 91/61/82
f 93/63/84 91/61/82 96/66/87
f 92/62/83 97/67/88 90/60/81
f 92/62/83 98/68/89 97/67/88
f 94/64/85 90/60/81 99/69/90
f 90/60/81 97/67/88 99/69/90
f 95/65/86 100/70/91 91/61/82
f 91/61/82 100/70/91 96/66/87
f 98/68/89 101/71/92 97/67/88
f 98/68/89 102/72/93 101/71/92
f 99/69/90 97/67/88 103/51/94
f 97/67/88 101/71/92 103/51/94
f 100/70/91 104/73/95 96/66/87
f 102/72/93 105/74/96 101/71/92
f 102/72/93 106/75/97 105/74/96
f 103/51/94 101/71/92 107/76/98
f 107/76/98 101/71/92 105/74/96
